<?xml version="1.0" encoding="UTF-8"?>
<!DOCTYPE svg PUBLIC "-//W3C//DTD SVG 1.1//EN" "http://www.w3.org/Graphics/SVG/1.1/DTD/svg11.dtd">
<svg xmlns="http://www.w3.org/2000/svg" version="1.1" width="720px" height="720px" style="shape-rendering:geometricPrecision; text-rendering:geometricPrecision; image-rendering:optimizeQuality; fill-rule:evenodd; clip-rule:evenodd" xmlns:xlink="http://www.w3.org/1999/xlink">
<g><path style="opacity:0.942" fill="#000000" d="M 340.5,-0.5 C 353.5,-0.5 366.5,-0.5 379.5,-0.5C 441.411,9.22326 484.911,42.8899 510,100.5C 511.598,104.461 513.098,108.461 514.5,112.5C 514.167,112.833 513.833,113.167 513.5,113.5C 469.536,50.5464 409.203,23.3797 332.5,32C 278.655,41.5687 236.322,68.7354 205.5,113.5C 217.446,75.0035 240.446,44.5035 274.5,22C 295.069,9.97773 317.069,2.47773 340.5,-0.5 Z"/></g>
<g><path style="opacity:0.944" fill="#000000" d="M 359.5,62.5 C 360.321,101.26 363.821,139.927 370,178.5C 372.014,188.222 374.181,197.889 376.5,207.5C 438.432,216.707 480.932,250.374 504,308.5C 507.314,319.424 510.147,330.424 512.5,341.5C 533.133,347.272 554.133,351.106 575.5,353C 602.451,355.248 629.451,356.581 656.5,357C 620.941,357.402 585.608,360.402 550.5,366C 537.683,368.371 525.016,371.371 512.5,375C 502.884,438.927 467.884,482.26 407.5,505C 397.385,508.256 387.052,510.423 376.5,511.5C 365.335,559.144 359.835,607.477 360,656.5C 360.131,616.862 356.797,577.529 350,538.5C 348.145,529.748 345.979,521.081 343.5,512.5C 266.378,498.544 220.711,453.044 206.5,376C 185.826,370.332 164.826,366.332 143.5,364C 117.558,361.503 91.5581,360.003 65.5,359.5C 101.043,359.223 136.377,356.39 171.5,351C 183.316,348.97 194.983,346.304 206.5,343C 215.083,285.124 245.75,243.79 298.5,219C 313.023,213.119 328.023,208.953 343.5,206.5C 353.004,170.809 358.17,134.475 359,97.5C 359.5,85.8381 359.667,74.1714 359.5,62.5 Z M 230.5,334.5 C 238.567,294.522 260.233,264.356 295.5,244C 308.019,237.32 321.186,232.487 335,229.5C 316.793,280.874 281.96,315.874 230.5,334.5 Z M 385.5,230.5 C 439.926,243.592 474.259,277.259 488.5,331.5C 488.167,332.167 487.833,332.833 487.5,333.5C 438.049,314.383 404.049,280.05 385.5,230.5 Z M 359.5,233.5 C 370.981,266.851 389.981,295.351 416.5,319C 436.421,337.631 459.421,351.131 485.5,359.5C 468.01,364.412 452.01,372.246 437.5,383C 406.768,405.393 382.935,433.559 366,467.5C 363.691,473.404 361.691,479.404 360,485.5C 357.24,473.889 352.907,462.889 347,452.5C 323.816,414.98 292.649,386.147 253.5,366C 247.267,363.534 240.934,361.367 234.5,359.5C 259.385,351.896 281.385,339.396 300.5,322C 319.353,305.164 335.186,285.997 348,264.5C 353.524,254.759 357.357,244.425 359.5,233.5 Z M 352.5,335.5 C 374.615,334.115 384.782,344.448 383,366.5C 374.552,383.967 361.719,388.134 344.5,379C 334.297,368.69 332.797,357.19 340,344.5C 343.616,340.62 347.783,337.62 352.5,335.5 Z M 487.5,383.5 C 488.239,383.369 488.906,383.536 489.5,384C 477.878,433.582 448.212,467.249 400.5,485C 395.297,486.971 389.963,487.971 384.5,488C 403.957,438.377 438.29,403.544 487.5,383.5 Z M 230.5,384.5 C 281.96,403.126 316.793,438.126 335,489.5C 278.565,475.899 243.732,440.899 230.5,384.5 Z"/></g>
<g><path style="opacity:0.941" fill="#000000" d="M -0.5,378.5 C -0.5,365.5 -0.5,352.5 -0.5,339.5C 9.22326,277.589 42.8899,234.089 100.5,209C 104.461,207.402 108.461,205.902 112.5,204.5C 112.833,204.833 113.167,205.167 113.5,205.5C 50.5656,249.392 23.399,309.725 32,386.5C 41.5687,440.345 68.7354,482.678 113.5,513.5C 75.0035,501.554 44.5035,478.554 22,444.5C 9.97773,423.931 2.47773,401.931 -0.5,378.5 Z"/></g>
<g><path style="opacity:0.942" fill="#000000" d="M 719.5,340.5 C 719.5,353.5 719.5,366.5 719.5,379.5C 709.777,441.411 676.11,484.911 618.5,510C 614.539,511.598 610.539,513.098 606.5,514.5C 606.167,514.167 605.833,513.833 605.5,513.5C 668.434,469.608 695.601,409.275 687,332.5C 677.731,278.451 650.564,236.118 605.5,205.5C 643.997,217.446 674.497,240.446 697,274.5C 709.022,295.069 716.522,317.069 719.5,340.5 Z"/></g>
<g><path style="opacity:0.872" fill="#000000" d="M 384.5,334.5 C 393.746,330.807 403.079,327.641 412.5,325C 405.5,332 398.5,339 391.5,346C 401.5,346.333 411.5,346.667 421.5,347C 412.876,351.263 404.21,355.43 395.5,359.5C 404.21,363.57 412.876,367.737 421.5,372C 411.5,372.333 401.5,372.667 391.5,373C 398.5,380 405.5,387 412.5,394C 403.079,391.359 393.746,388.193 384.5,384.5C 388.193,393.746 391.359,403.079 394,412.5C 387,405.5 380,398.5 373,391.5C 372.667,401.5 372.333,411.5 372,421.5C 367.737,412.876 363.57,404.21 359.5,395.5C 355.43,404.21 351.263,412.876 347,421.5C 346.667,411.5 346.333,401.5 346,391.5C 339,398.5 332,405.5 325,412.5C 327.641,403.079 330.807,393.746 334.5,384.5C 325.254,388.193 315.921,391.359 306.5,394C 313.5,387 320.5,380 327.5,373C 317.5,372.667 307.5,372.333 297.5,372C 306.124,367.737 314.79,363.57 323.5,359.5C 314.79,355.43 306.124,351.263 297.5,347C 307.5,346.667 317.5,346.333 327.5,346C 320.5,339 313.5,332 306.5,325C 315.921,327.641 325.254,330.807 334.5,334.5C 330.807,325.254 327.641,315.921 325,306.5C 332,313.5 339,320.5 346,327.5C 346.333,317.5 346.667,307.5 347,297.5C 351.263,306.124 355.43,314.79 359.5,323.5C 363.57,314.79 367.737,306.124 372,297.5C 372.333,307.5 372.667,317.5 373,327.5C 380,320.5 387,313.5 394,306.5C 391.359,315.921 388.193,325.254 384.5,334.5 Z M 352.5,335.5 C 347.783,337.62 343.616,340.62 340,344.5C 332.797,357.19 334.297,368.69 344.5,379C 361.719,388.134 374.552,383.967 383,366.5C 384.782,344.448 374.615,334.115 352.5,335.5 Z"/></g>
<g><path style="opacity:0.942" fill="#000000" d="M 378.5,719.5 C 365.5,719.5 352.5,719.5 339.5,719.5C 277.589,709.777 234.089,676.11 209,618.5C 207.402,614.539 205.902,610.539 204.5,606.5C 204.833,606.167 205.167,605.833 205.5,605.5C 249.464,668.454 309.797,695.62 386.5,687C 440.549,677.731 482.882,650.564 513.5,605.5C 501.554,643.997 478.554,674.497 444.5,697C 423.931,709.022 401.931,716.522 378.5,719.5 Z"/></g>
</svg>
