<?xml version="1.0" encoding="UTF-8"?>
<!DOCTYPE svg PUBLIC "-//W3C//DTD SVG 1.1//EN" "http://www.w3.org/Graphics/SVG/1.1/DTD/svg11.dtd">
<svg xmlns="http://www.w3.org/2000/svg" version="1.1" width="720px" height="720px" style="shape-rendering:geometricPrecision; text-rendering:geometricPrecision; image-rendering:optimizeQuality; fill-rule:evenodd; clip-rule:evenodd" xmlns:xlink="http://www.w3.org/1999/xlink">
<g><path style="opacity:1" fill="#fefefe" d="M 336.5,-0.5 C 351.5,-0.5 366.5,-0.5 381.5,-0.5C 417.525,7.09556 448.691,23.7622 475,49.5C 487.881,64.348 498.214,80.6813 506,98.5C 490.312,80.4747 472.478,64.9747 452.5,52C 413.182,31.6188 371.515,24.6188 327.5,31C 294.093,36.8746 264.427,50.5413 238.5,72C 230.986,79.6812 223.319,87.1812 215.5,94.5C 234.46,50.3976 267.127,20.8976 313.5,6C 321.313,3.88961 328.979,1.72294 336.5,-0.5 Z"/></g>
<g><path style="opacity:1" fill="#fefffe" d="M 213.5,95.5 C 214.833,96.1667 214.833,96.1667 213.5,95.5 Z"/></g>
<g><path style="opacity:1" fill="#fefefe" d="M 357.5,122.5 C 358.833,122.5 360.167,122.5 361.5,122.5C 363.631,151.219 368.131,179.552 375,207.5C 450.234,222.067 495.734,266.9 511.5,342C 539.595,349.929 568.262,354.096 597.5,354.5C 597.5,355.833 597.5,357.167 597.5,358.5C 568.381,360.683 539.715,365.517 511.5,373C 497.089,449.744 451.589,495.577 375,510.5C 368.499,537.503 363.999,564.837 361.5,592.5C 360.167,592.5 358.833,592.5 357.5,592.5C 356.158,575.761 354.158,559.094 351.5,542.5C 349.952,531.921 347.452,521.588 344,511.5C 311.59,505.375 282.757,491.875 257.5,471C 230.533,444.072 213.533,411.739 206.5,374C 178.951,366.779 150.951,362.445 122.5,361C 121.027,360.29 120.36,359.124 120.5,357.5C 149.569,355.562 178.236,351.062 206.5,344C 221.623,267.544 267.456,221.711 344,206.5C 351.636,179.018 356.136,151.018 357.5,122.5 Z M 328.5,228.5 C 330.5,228.5 332.5,228.5 334.5,228.5C 334.663,230.857 334.497,233.19 334,235.5C 315.448,284.219 281.615,317.219 232.5,334.5C 230.112,334.288 229.112,332.955 229.5,330.5C 242.257,276.745 275.257,242.745 328.5,228.5 Z M 385.5,229.5 C 439.124,240.621 473.29,272.621 488,325.5C 488.497,328.146 488.664,330.813 488.5,333.5C 482.811,333.327 477.477,331.827 472.5,329C 429.729,309.063 400.396,276.897 384.5,232.5C 384.685,231.416 385.018,230.416 385.5,229.5 Z M 358.5,232.5 C 359.376,232.369 360.043,232.702 360.5,233.5C 384.339,293.087 426.005,334.92 485.5,359C 425.941,383.725 383.941,425.892 359.5,485.5C 343.844,444.666 318.177,411.5 282.5,386C 267.164,375.166 250.831,366.166 233.5,359C 262.87,347.567 288.703,330.734 311,308.5C 327.955,290.599 341.955,270.599 353,248.5C 354.744,243.101 356.577,237.768 358.5,232.5 Z M 347.5,334.5 C 378.261,330.758 389.428,343.758 381,373.5C 373.02,383.117 362.853,386.284 350.5,383C 342.027,381.194 336.86,376.027 335,367.5C 333.664,358.843 334.664,350.51 338,342.5C 340.775,339.22 343.942,336.554 347.5,334.5 Z M 482.5,382.5 C 484.833,382.5 487.167,382.5 489.5,382.5C 481.359,428.621 456.026,461.454 413.5,481C 408.167,483 402.833,485 397.5,487C 392.845,487.499 388.179,487.666 383.5,487.5C 397.188,446.968 422.521,415.801 459.5,394C 467.259,390.121 474.925,386.287 482.5,382.5 Z M 230.5,383.5 C 280.725,399.889 315.225,432.889 334,482.5C 334.497,484.81 334.663,487.143 334.5,489.5C 279.13,478.3 244.297,445.3 230,390.5C 229.297,388.071 229.463,385.738 230.5,383.5 Z"/></g>
<g><path style="opacity:1" fill="#fefefe" d="M -0.5,380.5 C -0.5,365.833 -0.5,351.167 -0.5,336.5C 7.1156,300.432 23.7823,269.266 49.5,243C 64.348,230.119 80.6813,219.786 98.5,212C 42.9749,258.622 20.4749,318.122 31,390.5C 36.6186,421.051 48.6186,448.718 67,473.5C 76.4698,483.971 86.3031,494.137 96.5,504C 51.4445,484.601 21.2778,451.434 6,404.5C 3.68249,396.405 1.51582,388.405 -0.5,380.5 Z"/></g>
<g><path style="opacity:1" fill="#fefefe" d="M 623.5,214.5 C 684.415,243.458 716.081,291.791 718.5,359.5C 716.22,418.253 690.554,463.42 641.5,495C 634.5,498.833 627.5,502.667 620.5,506.5C 620.167,506.333 619.833,506.167 619.5,506C 632.007,495.159 643.507,483.326 654,470.5C 678.353,437.434 689.853,400.268 688.5,359C 689.162,319.325 678.329,283.158 656,250.5C 645.99,237.662 635.157,225.662 623.5,214.5 Z"/></g>
<g><path style="opacity:1" fill="#fefefe" d="M 346.5,307.5 C 347.675,307.281 348.675,307.614 349.5,308.5C 352.194,312.554 354.361,316.888 356,321.5C 358,324.167 360,324.167 362,321.5C 363.639,316.888 365.806,312.554 368.5,308.5C 369.325,307.614 370.325,307.281 371.5,307.5C 371.5,314.167 371.5,320.833 371.5,327.5C 372.873,327.657 374.207,327.49 375.5,327C 379.056,322.941 383.056,319.441 387.5,316.5C 387.833,316.833 388.167,317.167 388.5,317.5C 386.069,322.659 384.569,327.993 384,333.5C 384.725,334.059 385.558,334.392 386.5,334.5C 403.859,326.015 405.692,328.349 392,341.5C 390.991,343.025 390.491,344.692 390.5,346.5C 397.167,346.5 403.833,346.5 410.5,346.5C 410.719,347.675 410.386,348.675 409.5,349.5C 405.446,352.194 401.112,354.361 396.5,356C 393.833,358 393.833,360 396.5,362C 401.112,363.639 405.446,365.806 409.5,368.5C 410.386,369.325 410.719,370.325 410.5,371.5C 403.833,371.5 397.167,371.5 390.5,371.5C 390.491,373.308 390.991,374.975 392,376.5C 405.758,388.333 404.591,390.833 388.5,384C 385.763,382.92 384.096,383.754 383.5,386.5C 385.163,391.162 386.83,395.828 388.5,400.5C 388.167,400.833 387.833,401.167 387.5,401.5C 383.056,398.559 379.056,395.059 375.5,391C 374.207,390.51 372.873,390.343 371.5,390.5C 371.5,397.167 371.5,403.833 371.5,410.5C 370.325,410.719 369.325,410.386 368.5,409.5C 365.806,405.446 363.639,401.112 362,396.5C 360,393.833 358,393.833 356,396.5C 354.361,401.112 352.194,405.446 349.5,409.5C 348.675,410.386 347.675,410.719 346.5,410.5C 346.5,403.833 346.5,397.167 346.5,390.5C 345.127,390.343 343.793,390.51 342.5,391C 338.944,395.059 334.944,398.559 330.5,401.5C 330.167,401.167 329.833,400.833 329.5,400.5C 331.931,395.341 333.431,390.007 334,384.5C 333.275,383.941 332.442,383.608 331.5,383.5C 314.141,391.985 312.308,389.651 326,376.5C 327.009,374.975 327.509,373.308 327.5,371.5C 320.833,371.5 314.167,371.5 307.5,371.5C 307.281,370.325 307.614,369.325 308.5,368.5C 312.554,365.806 316.888,363.639 321.5,362C 324.167,360 324.167,358 321.5,356C 316.888,354.361 312.554,352.194 308.5,349.5C 307.614,348.675 307.281,347.675 307.5,346.5C 314.167,346.5 320.833,346.5 327.5,346.5C 327.509,344.692 327.009,343.025 326,341.5C 312.242,329.667 313.409,327.167 329.5,334C 332.237,335.08 333.904,334.246 334.5,331.5C 332.837,326.838 331.17,322.172 329.5,317.5C 329.833,317.167 330.167,316.833 330.5,316.5C 334.944,319.441 338.944,322.941 342.5,327C 343.793,327.49 345.127,327.657 346.5,327.5C 346.5,320.833 346.5,314.167 346.5,307.5 Z M 347.5,334.5 C 343.942,336.554 340.775,339.22 338,342.5C 334.664,350.51 333.664,358.843 335,367.5C 336.86,376.027 342.027,381.194 350.5,383C 362.853,386.284 373.02,383.117 381,373.5C 389.428,343.758 378.261,330.758 347.5,334.5 Z"/></g>
<g><path style="opacity:1" fill="#fefefe" d="M 211.5,619.5 C 222.642,631.807 234.642,643.307 247.5,654C 280.566,678.353 317.732,689.853 359,688.5C 416.788,688.349 464.621,666.682 502.5,623.5C 483.54,667.602 450.873,697.102 404.5,712C 346.905,726.768 295.572,714.768 250.5,676C 234.149,659.459 221.149,640.625 211.5,619.5 Z"/></g>
</svg>
