<svg xmlns="http://www.w3.org/2000/svg" xmlns:xlink="http://www.w3.org/1999/xlink" version="1.1" width="192" height="192" viewBox="0 0 192 192" xml:space="preserve">
    <desc>
        Created with Fabric.js 5.4.0
    </desc>
    <defs/>
    <rect x="0" y="0" width="100%" height="100%" fill="transparent"/>
    <g transform="matrix(1 0 0 1 96.5 82.54)">
        <g style="">
            <g transform="matrix(1 0 0 1 0 0)">
                <rect x="-80.51647373107748" y="-73.44999999999999" rx="0" ry="0" width="161.03294746215497" height="146.89999999999998" stroke="rgb(255,255,255)" stroke-opacity="0" stroke-width="1" stroke-dasharray="none" stroke-linecap="butt" stroke-dashoffset="0" stroke-linejoin="miter" stroke-miterlimit="4" fill="rgb(255,255,255)" fill-opacity="0" fill-rule="nonzero" opacity="1"/>
            </g>
            <g transform="matrix(1 0 0 1 -36.13 -7.59)">
                <path paint-order="stroke" transform=" translate(-60.38, -74.95)" d="M 92.43 100.66 L 60.38 125.42 Q 45.91 125.42 36.89 116.22 L 36.89 116.22 Q 28.32 107.46 28.32 93.68 L 28.32 93.68 L 28.32 49.25 L 60.38 24.49 Q 74.85 24.49 83.86 33.7 L 83.86 33.7 Q 92.43 42.46 92.43 56.23 L 92.43 56.23 L 80.37 61.94 L 79.74 61.94 L 79.74 56.23 Q 79.74 47.72 75.17 42.46 L 75.17 42.46 Q 69.52 35.92 60.38 35.92 L 60.38 35.92 Q 51.17 35.92 45.59 42.46 L 45.59 42.46 Q 41.02 47.72 41.02 56.23 L 41.02 56.23 L 41.02 93.68 Q 41.02 102.06 45.59 107.46 L 45.59 107.46 Q 51.11 113.99 60.38 113.99 L 60.38 113.99 Q 69.46 113.99 75.17 107.46 L 75.17 107.46 Q 79.74 102.19 79.74 93.68 L 79.74 93.68 L 91.8 87.97 L 92.43 87.97 L 92.43 100.66 Z" stroke-linecap="butt" stroke="rgb(255,255,255)" stroke-width="0" stroke-dasharray="none" stroke-dashoffset="0" stroke-linejoin="miter" stroke-miterlimit="4" fill="rgb(0,0,0)" fill-rule="nonzero" opacity="1"/>
            </g>
            <g transform="matrix(1 0 0 1 37.71 -7.59)">
                <path paint-order="stroke" transform=" translate(-134.22, -74.95)" d="M 166.27 100.66 L 134.21 125.42 Q 119.42 125.42 110.73 116.22 L 110.73 116.22 Q 102.16 107.14 102.16 93.68 L 102.16 93.68 L 114.22 87.97 L 114.85 87.97 L 114.85 93.68 Q 114.85 102.06 119.42 107.46 L 119.42 107.46 Q 124.94 113.99 134.21 113.99 L 134.21 113.99 Q 143.29 113.99 149 107.46 L 149 107.46 Q 153.57 102.19 153.57 93.68 L 153.57 93.68 Q 153.57 85.49 149.83 81.18 L 149.83 81.18 Q 144.62 75.21 134.15 75.21 L 134.15 75.21 Q 122.4 75.21 114.22 67.59 L 114.22 67.59 Q 107.87 61.69 107.87 50.9 L 107.87 50.9 L 107.87 44.8 L 134.21 24.49 Q 146.21 25.32 152.68 30.59 L 152.68 30.59 Q 160.55 37 160.55 49.44 L 160.55 49.44 L 148.49 55.15 L 147.86 55.15 L 147.86 49.44 Q 147.86 41.63 143.73 38.01 L 143.73 38.01 Q 139.73 34.52 134.21 34.52 L 134.21 34.52 Q 128.05 34.52 124.31 38.39 Q 120.56 42.27 120.56 49.44 L 120.56 49.44 Q 120.56 56.36 123.42 59.53 L 123.42 59.53 Q 127.23 63.78 134.15 63.78 L 134.15 63.78 Q 149.32 63.78 157.7 71.02 L 157.7 71.02 Q 166.27 78.45 166.27 93.55 L 166.27 93.55 L 166.27 100.66 Z" stroke-linecap="butt" stroke="rgb(255,255,255)" stroke-width="0" stroke-dasharray="none" stroke-dashoffset="0" stroke-linejoin="miter" stroke-miterlimit="4" fill="rgb(0,0,0)" fill-rule="nonzero" opacity="1"/>
            </g>
        </g>
    </g>
</svg>
