<?xml version="1.0" encoding="UTF-8"?>
<!DOCTYPE svg PUBLIC "-//W3C//DTD SVG 1.1//EN" "http://www.w3.org/Graphics/SVG/1.1/DTD/svg11.dtd">
<svg xmlns="http://www.w3.org/2000/svg" version="1.1" width="2000px" height="1500px" style="shape-rendering:geometricPrecision; text-rendering:geometricPrecision; image-rendering:optimizeQuality; fill-rule:evenodd; clip-rule:evenodd" xmlns:xlink="http://www.w3.org/1999/xlink">
<g><path style="opacity:1" fill="#2e051a" d="M -0.5,-0.5 C 666.167,-0.5 1332.83,-0.5 1999.5,-0.5C 1999.5,499.5 1999.5,999.5 1999.5,1499.5C 1332.83,1499.5 666.167,1499.5 -0.5,1499.5C -0.5,999.5 -0.5,499.5 -0.5,-0.5 Z"/></g>
<g><path style="opacity:1" fill="#e43c92" d="M 349.5,589.5 C 382.367,591.033 399.367,608.033 400.5,640.5C 394.359,643.6 388.192,646.6 382,649.5C 383.656,635.474 379.489,623.641 369.5,614C 357.412,607.016 345.078,606.683 332.5,613C 325.934,617.965 321.768,624.465 320,632.5C 319.333,656.167 319.333,679.833 320,703.5C 323.436,724.927 335.936,734.094 357.5,731C 373.291,726.637 381.291,716.137 381.5,699.5C 387.712,696.227 394.046,693.227 400.5,690.5C 401.833,697.5 401.833,704.5 400.5,711.5C 384.69,723.476 369.024,735.642 353.5,748C 336.257,751.326 321.757,746.16 310,732.5C 304.17,725.172 300.837,716.839 300,707.5C 299.333,681.167 299.333,654.833 300,628.5C 316.974,616.017 333.474,603.017 349.5,589.5 Z"/></g>
<g><path style="opacity:1" fill="#e43b92" d="M 1300.5,589.5 C 1316.13,589.898 1328.63,596.232 1338,608.5C 1341.72,615.054 1343.06,622.054 1342,629.5C 1335.79,632.356 1329.62,635.356 1323.5,638.5C 1322.67,633.198 1322.17,627.864 1322,622.5C 1317.52,609.498 1308.35,603.998 1294.5,606C 1283.87,609.969 1278.87,617.636 1279.5,629C 1278.03,639.392 1282.03,646.725 1291.5,651C 1300.49,652.041 1309.49,653.041 1318.5,654C 1341.21,660.562 1352.21,675.728 1351.5,699.5C 1351.48,703.748 1351.15,707.915 1350.5,712C 1333.88,724.284 1317.55,736.951 1301.5,750C 1268.66,748.991 1251.66,732.158 1250.5,699.5C 1256.5,696.5 1262.5,693.5 1268.5,690.5C 1268.66,701.119 1271.16,711.119 1276,720.5C 1286.79,731.871 1299.62,734.705 1314.5,729C 1326.11,722.448 1331.78,712.448 1331.5,699C 1332.01,686.674 1326.67,678.007 1315.5,673C 1306.28,671.05 1296.94,669.717 1287.5,669C 1264.7,661.252 1255.37,645.418 1259.5,621.5C 1273.21,610.779 1286.88,600.112 1300.5,589.5 Z"/></g>
<g><path style="opacity:1" fill="#e63c93" d="M 1406.5,590.5 C 1407.17,609.5 1407.83,628.5 1408.5,647.5C 1415.29,642.548 1421.96,637.382 1428.5,632C 1450.26,630.464 1464.43,639.964 1471,660.5C 1471.83,687.506 1471.67,714.506 1470.5,741.5C 1464.47,744.516 1458.47,747.516 1452.5,750.5C 1451.67,721.506 1451.17,692.506 1451,663.5C 1446.3,649.895 1436.8,644.728 1422.5,648C 1415.57,650.594 1411.07,655.427 1409,662.5C 1408.83,688.84 1408.33,715.173 1407.5,741.5C 1401.48,744.179 1395.48,746.845 1389.5,749.5C 1388.5,699.336 1388.17,649.003 1388.5,598.5C 1394.26,595.287 1400.26,592.62 1406.5,590.5 Z"/></g>
<g><path style="opacity:1" fill="#9d2663" d="M 1406.5,590.5 C 1406.56,589.957 1406.89,589.624 1407.5,589.5C 1408.5,608.822 1408.83,628.155 1408.5,647.5C 1407.83,628.5 1407.17,609.5 1406.5,590.5 Z"/></g>
<g><path style="opacity:1" fill="#96235e" d="M 1388.5,598.5 C 1388.17,649.003 1388.5,699.336 1389.5,749.5C 1389.44,750.043 1389.11,750.376 1388.5,750.5C 1387.17,699.668 1387.17,649.002 1388.5,598.5 Z"/></g>
<g><path style="opacity:1" fill="#e53c93" d="M 477.5,631.5 C 490.829,631.218 502.329,635.551 512,644.5C 516.207,649.775 518.873,655.775 520,662.5C 520.833,681.176 520.666,699.842 519.5,718.5C 506.69,728.142 494.024,737.976 481.5,748C 466.7,751.003 454.2,746.836 444,735.5C 439.885,729.489 437.551,722.822 437,715.5C 436.333,698.167 436.333,680.833 437,663.5C 450.399,652.589 463.899,641.922 477.5,631.5 Z"/></g>
<g><path style="opacity:1" fill="#e33b92" d="M 605.5,666.5 C 604.833,664.5 604.167,662.5 603.5,660.5C 602.535,654.03 598.868,649.864 592.5,648C 576.834,645.334 570.001,651.834 572,667.5C 573.668,671.165 576.501,673.332 580.5,674C 594.353,672.917 607.353,675.584 619.5,682C 627.358,690.551 631.358,700.718 631.5,712.5C 631.167,714.5 630.833,716.5 630.5,718.5C 617.69,728.142 605.024,737.976 592.5,748C 576.156,751.083 562.99,745.916 553,732.5C 548.977,725.688 547.31,718.354 548,710.5C 553.968,707.1 560.134,704.1 566.5,701.5C 567.257,707.514 568.091,713.514 569,719.5C 570.736,726.237 574.903,730.737 581.5,733C 595.582,736.665 605.082,731.832 610,718.5C 610.667,713.167 610.667,707.833 610,702.5C 608.073,697.572 604.573,694.406 599.5,693C 590.833,692 582.167,691 573.5,690C 557.188,686.202 550.188,676.036 552.5,659.5C 564.014,650.908 575.348,642.075 586.5,633C 603.458,630.397 615.625,636.897 623,652.5C 623.758,654.769 623.591,656.936 622.5,659C 616.812,661.512 611.145,664.012 605.5,666.5 Z"/></g>
<g><path style="opacity:1" fill="#e53c93" d="M 723.5,749.5 C 722.833,721.167 722.167,692.833 721.5,664.5C 719.863,656.026 714.863,650.526 706.5,648C 692.045,644.968 682.879,650.468 679,664.5C 678.833,690.173 678.333,715.84 677.5,741.5C 671.469,744.516 665.469,747.516 659.5,750.5C 658.333,721.506 658.167,692.506 659,663.5C 671.833,653.333 684.667,643.167 697.5,633C 709.574,630.907 720.574,633.574 730.5,641C 733.296,644.114 735.962,647.281 738.5,650.5C 746.68,644.575 754.68,638.409 762.5,632C 778.556,630.901 791.389,636.735 801,649.5C 802.927,652.948 804.261,656.615 805,660.5C 805.833,687.506 805.667,714.506 804.5,741.5C 798.5,744.5 792.5,747.5 786.5,750.5C 785.667,721.172 785.167,691.839 785,662.5C 779.811,649.654 770.311,644.82 756.5,648C 749.572,650.594 745.072,655.427 743,662.5C 742.833,688.84 742.333,715.173 741.5,741.5C 735.478,744.179 729.478,746.845 723.5,749.5 Z"/></g>
<g><path style="opacity:1" fill="#e43c92" d="M 876.5,631.5 C 894.619,630.638 908.119,637.971 917,653.5C 919.227,659.328 919.893,665.328 919,671.5C 898.347,687.66 878.18,704.327 858.5,721.5C 863.264,731.605 871.264,735.771 882.5,734C 894.545,730.592 900.545,722.592 900.5,710C 906.379,706.894 912.379,704.06 918.5,701.5C 919.807,707.388 919.807,713.221 918.5,719C 905.32,728.758 892.32,738.758 879.5,749C 861.076,750.874 847.576,743.707 839,727.5C 838.178,725.212 837.511,722.878 837,720.5C 836.333,701.167 836.333,681.833 837,662.5C 850.64,652.684 863.807,642.351 876.5,631.5 Z"/></g>
<g><path style="opacity:1" fill="#e53c93" d="M 951.5,749.5 C 950.502,721.005 950.169,692.338 950.5,663.5C 963.934,653.245 977.267,642.745 990.5,632C 1006.56,630.901 1019.39,636.735 1029,649.5C 1033.06,656.396 1034.23,663.729 1032.5,671.5C 1026.25,674.461 1019.92,677.128 1013.5,679.5C 1017.02,656.523 1007.35,646.023 984.5,648C 977.572,650.594 973.072,655.427 971,662.5C 970.833,688.84 970.333,715.173 969.5,741.5C 963.478,744.179 957.478,746.845 951.5,749.5 Z"/></g>
<g><path style="opacity:1" fill="#e33b92" d="M 1094.5,631.5 C 1112.62,630.638 1126.12,637.971 1135,653.5C 1137.23,659.328 1137.89,665.328 1137,671.5C 1116.35,687.66 1096.18,704.327 1076.5,721.5C 1083.61,734.588 1093.94,737.755 1107.5,731C 1109.96,729.542 1112.13,727.709 1114,725.5C 1116.05,720.462 1117.55,715.295 1118.5,710C 1124.38,706.894 1130.38,704.06 1136.5,701.5C 1137.81,707.388 1137.81,713.221 1136.5,719C 1123.32,728.758 1110.32,738.758 1097.5,749C 1073.55,750.624 1059.05,739.791 1054,716.5C 1053.33,698.833 1053.33,681.167 1054,663.5C 1067.66,652.934 1081.16,642.268 1094.5,631.5 Z"/></g>
<g><path style="opacity:1" fill="#e43b92" d="M 1542.5,631.5 C 1562.11,630.544 1575.94,638.877 1584,656.5C 1585.62,677.115 1585.95,697.782 1585,718.5C 1571.55,728.284 1558.38,738.451 1545.5,749C 1521.54,750.622 1507.04,739.789 1502,716.5C 1501.33,698.833 1501.33,681.167 1502,663.5C 1515.66,652.934 1529.16,642.268 1542.5,631.5 Z"/></g>
<g><path style="opacity:1" fill="#e33b91" d="M 1661.5,631.5 C 1681.11,630.544 1694.94,638.877 1703,656.5C 1704.62,677.115 1704.95,697.782 1704,718.5C 1690.74,728.546 1677.58,738.712 1664.5,749C 1656.61,750.219 1649.11,749.052 1642,745.5C 1641.83,757.847 1641.33,770.18 1640.5,782.5C 1634.04,786.066 1627.37,789.066 1620.5,791.5C 1620.33,748.832 1620.5,706.165 1621,663.5C 1634.66,652.934 1648.16,642.268 1661.5,631.5 Z"/></g>
<g><path style="opacity:1" fill="#30051b" d="M 470.5,647.5 C 485.381,644.846 495.214,650.513 500,664.5C 500.667,681.167 500.667,697.833 500,714.5C 497.097,729.07 488.264,735.57 473.5,734C 463.312,731.478 457.812,724.978 457,714.5C 456.333,697.833 456.333,681.167 457,664.5C 459.108,656.896 463.608,651.229 470.5,647.5 Z"/></g>
<g><path style="opacity:1" fill="#2f051a" d="M 870.5,647.5 C 878.426,646.498 885.759,647.998 892.5,652C 898.261,657.283 900.428,663.783 899,671.5C 885,682.833 871,694.167 857,705.5C 856.333,691.167 856.333,676.833 857,662.5C 859.263,655.407 863.763,650.407 870.5,647.5 Z"/></g>
<g><path style="opacity:1" fill="#2f051a" d="M 1088.5,647.5 C 1096.41,646.498 1103.75,647.998 1110.5,652C 1116.26,657.283 1118.43,663.783 1117,671.5C 1103,682.833 1089,694.167 1075,705.5C 1074.33,691.167 1074.33,676.833 1075,662.5C 1077.26,655.407 1081.76,650.407 1088.5,647.5 Z"/></g>
<g><path style="opacity:1" fill="#2e051a" d="M 1536.5,647.5 C 1543.03,646.988 1549.36,647.822 1555.5,650C 1560.8,653.434 1563.97,658.267 1565,664.5C 1565.67,681.833 1565.67,699.167 1565,716.5C 1561.57,729.636 1553.07,735.469 1539.5,734C 1530.67,731.833 1525.17,726.333 1523,717.5C 1522.33,699.167 1522.33,680.833 1523,662.5C 1525.26,655.407 1529.76,650.407 1536.5,647.5 Z"/></g>
<g><path style="opacity:1" fill="#2e051a" d="M 1655.5,647.5 C 1664.89,645.912 1673.06,648.245 1680,654.5C 1681.86,656.888 1683.19,659.554 1684,662.5C 1684.67,680.5 1684.67,698.5 1684,716.5C 1682.31,725.86 1676.81,731.693 1667.5,734C 1658.41,735.305 1650.91,732.472 1645,725.5C 1643.44,723.043 1642.44,720.376 1642,717.5C 1641.33,699.167 1641.33,680.833 1642,662.5C 1644.26,655.407 1648.76,650.407 1655.5,647.5 Z"/></g>
<g><path style="opacity:1" fill="#791b4b" d="M 950.5,663.5 C 950.169,692.338 950.502,721.005 951.5,749.5C 951.44,750.043 951.107,750.376 950.5,750.5C 949.17,721.336 949.17,692.336 950.5,663.5 Z"/></g>
<g><path style="opacity:1" fill="#96245f" d="M 603.5,660.5 C 604.167,662.5 604.833,664.5 605.5,666.5C 605.44,667.043 605.107,667.376 604.5,667.5C 603.526,665.257 603.192,662.924 603.5,660.5 Z"/></g>
<g><path style="opacity:1" fill="#7f1d50" d="M 721.5,664.5 C 722.167,692.833 722.833,721.167 723.5,749.5C 723.44,750.043 723.107,750.376 722.5,750.5C 721.5,721.841 721.167,693.174 721.5,664.5 Z"/></g>
<g><path style="opacity:1" fill="#e16a8d" d="M 543.5,824.5 C 543.167,845.511 543.5,866.511 544.5,887.5C 545.107,887.376 545.44,887.043 545.5,886.5C 549.757,885.038 553.757,883.038 557.5,880.5C 554.833,876.833 552.167,873.167 549.5,869.5C 552.694,867.932 555.86,866.265 559,864.5C 560.667,866.833 562.333,869.167 564,871.5C 564.837,873.007 566.004,873.507 567.5,873C 578.3,856.313 574.967,843.313 557.5,834C 553.571,832.523 549.571,831.356 545.5,830.5C 545.5,830.167 545.5,829.833 545.5,829.5C 549.761,826.525 554.428,825.025 559.5,825C 581.077,832.989 587.91,847.823 580,869.5C 577.02,873.314 573.854,876.981 570.5,880.5C 575.833,888.167 581.167,895.833 586.5,903.5C 583.439,905.869 580.106,907.369 576.5,908C 572,901.5 567.5,895 563,888.5C 562.261,887.426 561.261,886.759 560,886.5C 554.94,888.797 549.773,890.797 544.5,892.5C 543.509,896.445 543.176,900.445 543.5,904.5C 540.063,905.134 536.896,906.467 534,908.5C 533.167,881.827 533.333,855.16 534.5,828.5C 537.404,826.88 540.404,825.547 543.5,824.5 Z"/></g>
<g><path style="opacity:1" fill="#9b4360" d="M 759.5,825.5 C 760.209,824.596 761.209,824.263 762.5,824.5C 762.831,847.006 762.497,869.34 761.5,891.5C 762.156,869.141 761.489,847.141 759.5,825.5 Z"/></g>
<g><path style="opacity:1" fill="#de698b" d="M 851.5,824.5 C 864.417,823.934 873.25,829.601 878,841.5C 879.632,862.102 879.965,882.769 879,903.5C 875.912,905.294 872.746,906.961 869.5,908.5C 868.667,887.174 868.167,865.841 868,844.5C 862.434,834.132 854.267,831.299 843.5,836C 840.567,838.264 838.4,841.098 837,844.5C 836.5,853.494 836.334,862.494 836.5,871.5C 844.86,871.169 853.193,871.502 861.5,872.5C 860.248,874.001 859.248,875.668 858.5,877.5C 851.197,878.497 843.863,878.831 836.5,878.5C 836.666,886.84 836.5,895.173 836,903.5C 832.912,905.294 829.746,906.961 826.5,908.5C 825.501,898.522 825.168,888.522 825.5,878.5C 822.813,878.664 820.146,878.497 817.5,878C 818.627,876.247 819.627,874.413 820.5,872.5C 822.045,871.548 823.712,871.215 825.5,871.5C 825.334,862.494 825.5,853.494 826,844.5C 834.686,837.97 843.186,831.303 851.5,824.5 Z"/></g>
<g><path style="opacity:1" fill="#df698c" d="M 989.5,847.5 C 989.56,848.043 989.893,848.376 990.5,848.5C 991.497,841.866 991.83,835.2 991.5,828.5C 994.471,827.173 997.471,825.84 1000.5,824.5C 1001.67,846.826 1001.83,869.159 1001,891.5C 994.167,897 987.333,902.5 980.5,908C 969.288,908.816 961.788,903.983 958,893.5C 957.333,883.167 957.333,872.833 958,862.5C 964.744,857.212 971.577,852.045 978.5,847C 982.188,846.55 985.854,846.717 989.5,847.5 Z"/></g>
<g><path style="opacity:1" fill="#a54967" d="M 1251.5,825.5 C 1252.21,824.596 1253.21,824.263 1254.5,824.5C 1254.83,847.006 1254.5,869.34 1253.5,891.5C 1254.16,869.141 1253.49,847.141 1251.5,825.5 Z"/></g>
<g><path style="opacity:1" fill="#de698b" d="M 1343.5,824.5 C 1357.6,824.44 1366.77,831.107 1371,844.5C 1371.83,859.178 1371.67,873.845 1370.5,888.5C 1362.17,895 1353.83,901.5 1345.5,908C 1330.98,908.492 1321.81,901.659 1318,887.5C 1317.33,873.167 1317.33,858.833 1318,844.5C 1326.69,837.97 1335.19,831.303 1343.5,824.5 Z"/></g>
<g><path style="opacity:1" fill="#e26b8e" d="M 759.5,825.5 C 761.489,847.141 762.156,869.141 761.5,891.5C 755.356,896.803 749.022,901.969 742.5,907C 733.841,909.113 726.674,906.613 721,899.5C 720.027,897.608 719.36,895.608 719,893.5C 718.333,883.167 718.333,872.833 719,862.5C 725.5,857.333 732,852.167 738.5,847C 742.701,846.078 746.701,846.578 750.5,848.5C 751.167,841.833 751.833,835.167 752.5,828.5C 754.739,827.212 757.072,826.212 759.5,825.5 Z"/></g>
<g><path style="opacity:1" fill="#e06a8d" d="M 1129.5,824.5 C 1134.29,833.472 1131.63,838.805 1121.5,840.5C 1121.18,836.445 1121.51,832.445 1122.5,828.5C 1125.06,827.392 1127.39,826.059 1129.5,824.5 Z"/></g>
<g><path style="opacity:1" fill="#e16b8d" d="M 1251.5,825.5 C 1253.49,847.141 1254.16,869.141 1253.5,891.5C 1247.36,896.803 1241.02,901.969 1234.5,907C 1225.84,909.113 1218.67,906.613 1213,899.5C 1212.03,897.608 1211.36,895.608 1211,893.5C 1210.33,883.167 1210.33,872.833 1211,862.5C 1217.5,857.333 1224,852.167 1230.5,847C 1234.7,846.078 1238.7,846.578 1242.5,848.5C 1243.17,841.833 1243.83,835.167 1244.5,828.5C 1246.74,827.212 1249.07,826.212 1251.5,825.5 Z"/></g>
<g><path style="opacity:1" fill="#e46c8f" d="M 1466.5,824.5 C 1466.5,832.5 1466.5,840.5 1466.5,848.5C 1471.36,848.181 1476.03,848.514 1480.5,849.5C 1479.83,851.167 1479.17,852.833 1478.5,854.5C 1474.5,854.5 1470.5,854.5 1466.5,854.5C 1466.5,870.833 1466.5,887.167 1466.5,903.5C 1463.24,905.153 1459.91,906.819 1456.5,908.5C 1456.5,890.5 1456.5,872.5 1456.5,854.5C 1451.64,854.819 1446.97,854.486 1442.5,853.5C 1443.17,851.833 1443.83,850.167 1444.5,848.5C 1448.5,848.5 1452.5,848.5 1456.5,848.5C 1456.5,841.833 1456.5,835.167 1456.5,828.5C 1459.83,827.167 1463.17,825.833 1466.5,824.5 Z"/></g>
<g><path style="opacity:1" fill="#e26b8e" d="M 1097.5,878.5 C 1090.17,878.5 1082.83,878.5 1075.5,878.5C 1075.5,886.833 1075.5,895.167 1075.5,903.5C 1072.35,904.995 1069.18,906.662 1066,908.5C 1065.5,898.506 1065.33,888.506 1065.5,878.5C 1062.75,878.813 1060.09,878.48 1057.5,877.5C 1058.75,875.677 1059.41,873.677 1059.5,871.5C 1061.5,871.5 1063.5,871.5 1065.5,871.5C 1065.17,857.151 1065.5,842.818 1066.5,828.5C 1067.5,828 1068.5,827.5 1069.5,827C 1081.17,826.333 1092.83,826.333 1104.5,827C 1103.37,828.753 1102.37,830.587 1101.5,832.5C 1092.86,833.498 1084.19,833.831 1075.5,833.5C 1075.5,846.167 1075.5,858.833 1075.5,871.5C 1083.86,871.169 1092.19,871.502 1100.5,872.5C 1099.49,874.527 1098.49,876.527 1097.5,878.5 Z"/></g>
<g><path style="opacity:1" fill="#943e5b" d="M 991.5,828.5 C 991.83,835.2 991.497,841.866 990.5,848.5C 989.893,848.376 989.56,848.043 989.5,847.5C 990.167,841.167 990.833,834.833 991.5,828.5 Z"/></g>
<g><path style="opacity:1" fill="#62223c" d="M 1456.5,828.5 C 1456.5,835.167 1456.5,841.833 1456.5,848.5C 1452.5,848.5 1448.5,848.5 1444.5,848.5C 1447.96,847.518 1451.63,847.185 1455.5,847.5C 1455.18,840.978 1455.51,834.645 1456.5,828.5 Z"/></g>
<g><path style="opacity:1" fill="#511931" d="M 543.5,824.5 C 544.167,826.167 544.833,827.833 545.5,829.5C 545.5,829.833 545.5,830.167 545.5,830.5C 544.167,849.167 544.167,867.833 545.5,886.5C 545.44,887.043 545.107,887.376 544.5,887.5C 543.5,866.511 543.167,845.511 543.5,824.5 Z"/></g>
<g><path style="opacity:1" fill="#2f051a" d="M 545.5,830.5 C 549.571,831.356 553.571,832.523 557.5,834C 574.967,843.313 578.3,856.313 567.5,873C 566.004,873.507 564.837,873.007 564,871.5C 562.333,869.167 560.667,866.833 559,864.5C 555.86,866.265 552.694,867.932 549.5,869.5C 552.167,873.167 554.833,876.833 557.5,880.5C 553.757,883.038 549.757,885.038 545.5,886.5C 544.167,867.833 544.167,849.167 545.5,830.5 Z"/></g>
<g><path style="opacity:1" fill="#2f051a" d="M 1340.5,833.5 C 1349.46,832.896 1355.96,836.562 1360,844.5C 1360.67,858.167 1360.67,871.833 1360,885.5C 1357.13,896.659 1349.96,900.825 1338.5,898C 1333.16,895.993 1330,892.159 1329,886.5C 1328.33,872.5 1328.33,858.5 1329,844.5C 1331.44,839.226 1335.27,835.56 1340.5,833.5 Z"/></g>
<g><path style="opacity:1" fill="#df6a8c" d="M 643.5,883.5 C 644.473,885.948 644.806,888.615 644.5,891.5C 638.688,896.469 632.688,901.303 626.5,906C 617.642,909.39 610.142,907.223 604,899.5C 603.027,897.608 602.36,895.608 602,893.5C 601.333,883.167 601.333,872.833 602,862.5C 608.5,857.333 615,852.167 621.5,847C 636.757,845.598 644.257,852.431 644,867.5C 633.833,875.667 623.667,883.833 613.5,892C 612.549,892.718 612.383,893.551 613,894.5C 618.645,900.432 624.979,901.099 632,896.5C 633.372,893.382 634.538,890.216 635.5,887C 638.071,885.546 640.738,884.38 643.5,883.5 Z"/></g>
<g><path style="opacity:1" fill="#de698b" d="M 678.5,846.5 C 688.805,845.401 696.305,849.401 701,858.5C 702.617,873.432 702.951,888.432 702,903.5C 698.912,905.294 695.746,906.961 692.5,908.5C 691.833,905.833 691.167,903.167 690.5,900.5C 681.152,910.93 671.652,910.93 662,900.5C 658.734,895.262 657.734,889.595 659,883.5C 665.833,878 672.667,872.5 679.5,867C 683.501,867.162 687.501,867.662 691.5,868.5C 691.55,857.721 686.217,853.221 675.5,855C 673.563,857.435 671.73,857.602 670,855.5C 669.833,855.167 669.667,854.833 669.5,854.5C 672.545,851.782 675.545,849.116 678.5,846.5 Z"/></g>
<g><path style="opacity:1" fill="#e06a8c" d="M 918.5,846.5 C 929.031,845.842 936.531,850.175 941,859.5C 941.5,874.496 941.667,889.496 941.5,904.5C 938.063,905.134 934.896,906.467 932,908.5C 931.667,893.5 931.333,878.5 931,863.5C 929.442,857.376 925.442,854.376 919,854.5C 914.313,854.848 910.979,857.181 909,861.5C 908.667,875.5 908.333,889.5 908,903.5C 904.912,905.294 901.746,906.961 898.5,908.5C 897.334,893.178 897.167,877.844 898,862.5C 904.993,857.268 911.826,851.934 918.5,846.5 Z"/></g>
<g><path style="opacity:1" fill="#e46c8f" d="M 1130.5,846.5 C 1131.5,865.326 1131.83,884.326 1131.5,903.5C 1128.35,904.995 1125.18,906.662 1122,908.5C 1121.33,889.167 1121.33,869.833 1122,850.5C 1124.66,848.754 1127.49,847.42 1130.5,846.5 Z"/></g>
<g><path style="opacity:1" fill="#66243e" d="M 1130.5,846.5 C 1130.56,845.957 1130.89,845.624 1131.5,845.5C 1132.83,864.996 1132.83,884.329 1131.5,903.5C 1131.83,884.326 1131.5,865.326 1130.5,846.5 Z"/></g>
<g><path style="opacity:1" fill="#de698c" d="M 1185.5,907.5 C 1184.83,893.167 1184.17,878.833 1183.5,864.5C 1181.47,856.077 1176.14,852.911 1167.5,855C 1165.91,856.046 1164.41,857.213 1163,858.5C 1161.7,873.407 1161.03,888.407 1161,903.5C 1157.75,905.359 1154.42,907.025 1151,908.5C 1150.33,893.167 1150.33,877.833 1151,862.5C 1157.5,857.333 1164,852.167 1170.5,847C 1181.85,845.423 1189.68,849.923 1194,860.5C 1194.67,874.833 1194.67,889.167 1194,903.5C 1191.34,905.246 1188.51,906.58 1185.5,907.5 Z"/></g>
<g><path style="opacity:1" fill="#df6a8c" d="M 1432.5,846.5 C 1433.5,861.324 1433.83,876.324 1433.5,891.5C 1426.4,896.755 1419.4,902.255 1412.5,908C 1403.82,908.744 1396.99,905.577 1392,898.5C 1391.18,896.212 1390.51,893.878 1390,891.5C 1389.17,877.821 1389.33,864.154 1390.5,850.5C 1393.75,848.961 1396.91,847.294 1400,845.5C 1400.04,861.9 1400.71,878.233 1402,894.5C 1402.83,896.667 1404.33,898.167 1406.5,899C 1414.38,901.474 1419.88,898.974 1423,891.5C 1423.33,877.833 1423.67,864.167 1424,850.5C 1426.66,848.754 1429.49,847.42 1432.5,846.5 Z"/></g>
<g><path style="opacity:1" fill="#531a32" d="M 1432.5,846.5 C 1432.56,845.957 1432.89,845.624 1433.5,845.5C 1434.83,860.995 1434.83,876.328 1433.5,891.5C 1433.83,876.324 1433.5,861.324 1432.5,846.5 Z"/></g>
<g><path style="opacity:1" fill="#732c46" d="M 1466.5,824.5 C 1467.49,831.982 1467.83,839.648 1467.5,847.5C 1472.21,847.173 1476.88,847.507 1481.5,848.5C 1481.38,849.107 1481.04,849.44 1480.5,849.5C 1476.03,848.514 1471.36,848.181 1466.5,848.5C 1466.5,840.5 1466.5,832.5 1466.5,824.5 Z"/></g>
<g><path style="opacity:1" fill="#32071c" d="M 618.5,854.5 C 627.121,852.899 632.454,856.232 634.5,864.5C 634.167,865.5 633.833,866.5 633.5,867.5C 626.683,873.406 619.683,879.073 612.5,884.5C 611.335,877.189 611.169,869.856 612,862.5C 613.305,859.039 615.471,856.372 618.5,854.5 Z"/></g>
<g><path style="opacity:1" fill="#30061b" d="M 735.5,854.5 C 742.387,853.286 747.553,855.619 751,861.5C 751.667,871.5 751.667,881.5 751,891.5C 748.466,899.074 743.299,901.574 735.5,899C 732.244,897.413 730.077,894.913 729,891.5C 728.333,881.833 728.333,872.167 729,862.5C 730.305,859.039 732.471,856.372 735.5,854.5 Z"/></g>
<g><path style="opacity:1" fill="#2f051a" d="M 974.5,854.5 C 980.981,853.487 986.148,855.487 990,860.5C 990.667,871.167 990.667,881.833 990,892.5C 989.261,895.573 987.428,897.74 984.5,899C 978.924,900.472 974.091,899.305 970,895.5C 969.667,894.5 969.333,893.5 969,892.5C 968.333,882.167 968.333,871.833 969,861.5C 970.666,859.004 972.5,856.671 974.5,854.5 Z"/></g>
<g><path style="opacity:1" fill="#30061b" d="M 1227.5,854.5 C 1234.39,853.286 1239.55,855.619 1243,861.5C 1243.67,871.833 1243.67,882.167 1243,892.5C 1239.9,899.132 1234.74,901.299 1227.5,899C 1224.27,897.437 1222.1,894.937 1221,891.5C 1220.33,881.833 1220.33,872.167 1221,862.5C 1222.3,859.039 1224.47,856.372 1227.5,854.5 Z"/></g>
<g><path style="opacity:1" fill="#62223c" d="M 1442.5,853.5 C 1446.97,854.486 1451.64,854.819 1456.5,854.5C 1456.5,872.5 1456.5,890.5 1456.5,908.5C 1455.5,891.008 1455.17,873.341 1455.5,855.5C 1450.79,855.827 1446.12,855.493 1441.5,854.5C 1441.62,853.893 1441.96,853.56 1442.5,853.5 Z"/></g>
<g><path style="opacity:1" fill="#6f2943" d="M 1478.5,854.5 C 1475.04,855.482 1471.37,855.815 1467.5,855.5C 1467.83,871.675 1467.5,887.675 1466.5,903.5C 1466.5,887.167 1466.5,870.833 1466.5,854.5C 1470.5,854.5 1474.5,854.5 1478.5,854.5 Z"/></g>
<g><path style="opacity:1" fill="#bb5575" d="M 1183.5,864.5 C 1184.17,878.833 1184.83,893.167 1185.5,907.5C 1185.44,908.043 1185.11,908.376 1184.5,908.5C 1183.5,893.848 1183.17,879.182 1183.5,864.5 Z"/></g>
<g><path style="opacity:1" fill="#2f061b" d="M 674.5,875.5 C 687.97,873.47 693.47,879.136 691,892.5C 687.903,899.132 682.736,901.299 675.5,899C 673.714,898.215 672.214,897.049 671,895.5C 668.115,887.99 669.282,881.323 674.5,875.5 Z"/></g>
<g><path style="opacity:1" fill="#4e172e" d="M 1097.5,878.5 C 1090.69,879.491 1083.69,879.825 1076.5,879.5C 1076.83,887.684 1076.49,895.684 1075.5,903.5C 1075.5,895.167 1075.5,886.833 1075.5,878.5C 1082.83,878.5 1090.17,878.5 1097.5,878.5 Z"/></g>
<g><path style="opacity:1" fill="#8d3b57" d="M 643.5,883.5 C 643.56,882.957 643.893,882.624 644.5,882.5C 645.803,885.645 645.803,888.645 644.5,891.5C 644.806,888.615 644.473,885.948 643.5,883.5 Z"/></g>
</svg>
